<mxfile><diagram id="XD2ohdCcaw_L0DEDgZ9n" name="Page-1"><mxGraphModel dx="617" dy="478" grid="1" gridSize="10" guides="1" tooltips="1" connect="1" arrows="1" fold="1" page="1" pageScale="1" pageWidth="850" pageHeight="1100" math="0" shadow="0"><root><mxCell id="0"/><mxCell id="1" parent="0"/><mxCell id="2" value="InvoiceItem" style="swimlane;fontStyle=1;align=center;verticalAlign=top;childLayout=stackLayout;horizontal=1;startSize=26;horizontalStack=0;resizeParent=1;resizeParentMax=0;resizeLast=0;collapsible=1;marginBottom=0;" vertex="1" parent="1"><mxGeometry x="310" y="535" width="160" height="218" as="geometry"/></mxCell><mxCell id="3" value="+ item: String&#10; + qty: Interger&#10;+ idItem : Integer&#10;+ subTotal : float" style="text;strokeColor=none;fillColor=none;align=left;verticalAlign=top;spacingLeft=4;spacingRight=4;overflow=hidden;rotatable=0;points=[[0,0.5],[1,0.5]];portConstraint=eastwest;" vertex="1" parent="2"><mxGeometry y="26" width="160" height="84" as="geometry"/></mxCell><mxCell id="4" value="" style="line;strokeWidth=1;fillColor=none;align=left;verticalAlign=middle;spacingTop=-1;spacingLeft=3;spacingRight=3;rotatable=0;labelPosition=right;points=[];portConstraint=eastwest;strokeColor=inherit;" vertex="1" parent="2"><mxGeometry y="110" width="160" height="8" as="geometry"/></mxCell><mxCell id="5" value="+ __init__(item, qty, )&#10;+ getSubTotal() : float&#10;+ __str__() : String&#10;+ __repr__() : String" style="text;strokeColor=none;fillColor=none;align=left;verticalAlign=top;spacingLeft=4;spacingRight=4;overflow=hidden;rotatable=0;points=[[0,0.5],[1,0.5]];portConstraint=eastwest;" vertex="1" parent="2"><mxGeometry y="118" width="160" height="100" as="geometry"/></mxCell><mxCell id="6" value="CashRegister" style="swimlane;fontStyle=1;align=center;verticalAlign=top;childLayout=stackLayout;horizontal=1;startSize=26;horizontalStack=0;resizeParent=1;resizeParentMax=0;resizeLast=0;collapsible=1;marginBottom=0;" vertex="1" parent="1"><mxGeometry x="300" y="70" width="280" height="360" as="geometry"/></mxCell><mxCell id="7" value="+ customer :  Customer&#10;+ items : dictionary&#10;+ purchaseDate : String&#10;+ invoiceTotal : Integer" style="text;strokeColor=none;fillColor=none;align=left;verticalAlign=top;spacingLeft=4;spacingRight=4;overflow=hidden;rotatable=0;points=[[0,0.5],[1,0.5]];portConstraint=eastwest;" vertex="1" parent="6"><mxGeometry y="26" width="280" height="114" as="geometry"/></mxCell><mxCell id="8" value="" style="line;strokeWidth=1;fillColor=none;align=left;verticalAlign=middle;spacingTop=-1;spacingLeft=3;spacingRight=3;rotatable=0;labelPosition=right;points=[];portConstraint=eastwest;strokeColor=inherit;" vertex="1" parent="6"><mxGeometry y="140" width="280" height="8" as="geometry"/></mxCell><mxCell id="9" value="+ __init__(customer):&#10;+ getItemLength() : integer&#10;+ decInvTotal() : Integer&#10;+ incInvTotal() : Integer&#10;+ addItems(item : Item, qty: Integer) : Dictionary&#10;+ updateItems(item; Item, qty : Integer): Dictionary&#10;+ removeItems() : Dictionary&#10;+ getInvoiceTotal() : float&#10;+ getPurchase(): String&#10;+ displayInvoice() : String&#10;+ notOfficialInvoice() : String &#10;+ __str__ : String&#10;+ __repr__ : String&#10;" style="text;strokeColor=none;fillColor=none;align=left;verticalAlign=top;spacingLeft=4;spacingRight=4;overflow=hidden;rotatable=0;points=[[0,0.5],[1,0.5]];portConstraint=eastwest;" vertex="1" parent="6"><mxGeometry y="148" width="280" height="212" as="geometry"/></mxCell><mxCell id="10" value="Customer" style="swimlane;fontStyle=1;align=center;verticalAlign=top;childLayout=stackLayout;horizontal=1;startSize=26;horizontalStack=0;resizeParent=1;resizeParentMax=0;resizeLast=0;collapsible=1;marginBottom=0;" vertex="1" parent="1"><mxGeometry x="101" y="541" width="179" height="208" as="geometry"/></mxCell><mxCell id="11" value="+ firstName : String&#10; + lastName: String" style="text;strokeColor=none;fillColor=none;align=left;verticalAlign=top;spacingLeft=4;spacingRight=4;overflow=hidden;rotatable=0;points=[[0,0.5],[1,0.5]];portConstraint=eastwest;" vertex="1" parent="10"><mxGeometry y="26" width="179" height="64" as="geometry"/></mxCell><mxCell id="12" value="" style="line;strokeWidth=1;fillColor=none;align=left;verticalAlign=middle;spacingTop=-1;spacingLeft=3;spacingRight=3;rotatable=0;labelPosition=right;points=[];portConstraint=eastwest;strokeColor=inherit;" vertex="1" parent="10"><mxGeometry y="90" width="179" height="8" as="geometry"/></mxCell><mxCell id="13" value="+ __init__(firsName, lastName)&#10; + __str__() : String&#10; + __repr__() : String" style="text;strokeColor=none;fillColor=none;align=left;verticalAlign=top;spacingLeft=4;spacingRight=4;overflow=hidden;rotatable=0;points=[[0,0.5],[1,0.5]];portConstraint=eastwest;" vertex="1" parent="10"><mxGeometry y="98" width="179" height="110" as="geometry"/></mxCell><mxCell id="14" value="" style="endArrow=open;html=1;endSize=12;startArrow=diamondThin;startSize=14;startFill=1;edgeStyle=orthogonalEdgeStyle;align=left;verticalAlign=bottom;rounded=0;entryX=0.581;entryY=0;entryDx=0;entryDy=0;entryPerimeter=0;exitX=0.4;exitY=1;exitDx=0;exitDy=0;exitPerimeter=0;" edge="1" parent="1"><mxGeometry x="-1" y="3" relative="1" as="geometry"><mxPoint x="414" y="435" as="sourcePoint"/><mxPoint x="412.96000000000004" y="540" as="targetPoint"/></mxGeometry></mxCell><mxCell id="15" value="Item" style="swimlane;fontStyle=1;align=center;verticalAlign=top;childLayout=stackLayout;horizontal=1;startSize=26;horizontalStack=0;resizeParent=1;resizeParentMax=0;resizeLast=0;collapsible=1;marginBottom=0;" vertex="1" parent="1"><mxGeometry x="510" y="535" width="160" height="250" as="geometry"/></mxCell><mxCell id="16" value="+ ids : Integer&#10;+ name : String&#10;+ price: price" style="text;strokeColor=none;fillColor=none;align=left;verticalAlign=top;spacingLeft=4;spacingRight=4;overflow=hidden;rotatable=0;points=[[0,0.5],[1,0.5]];portConstraint=eastwest;" vertex="1" parent="15"><mxGeometry y="26" width="160" height="84" as="geometry"/></mxCell><mxCell id="17" value="" style="line;strokeWidth=1;fillColor=none;align=left;verticalAlign=middle;spacingTop=-1;spacingLeft=3;spacingRight=3;rotatable=0;labelPosition=right;points=[];portConstraint=eastwest;strokeColor=inherit;" vertex="1" parent="15"><mxGeometry y="110" width="160" height="8" as="geometry"/></mxCell><mxCell id="18" value="+ __init__(ids, name, price)&#10;+ __repr__() : String&#10;+ __str__() : String&#10;+ getId() : Integer&#10;+ getname() : STring&#10;+ getPrice() : float" style="text;strokeColor=none;fillColor=none;align=left;verticalAlign=top;spacingLeft=4;spacingRight=4;overflow=hidden;rotatable=0;points=[[0,0.5],[1,0.5]];portConstraint=eastwest;" vertex="1" parent="15"><mxGeometry y="118" width="160" height="132" as="geometry"/></mxCell><mxCell id="19" value="Register" style="swimlane;fontStyle=1;align=center;verticalAlign=top;childLayout=stackLayout;horizontal=1;startSize=26;horizontalStack=0;resizeParent=1;resizeParentMax=0;resizeLast=0;collapsible=1;marginBottom=0;" vertex="1" parent="1"><mxGeometry x="740" y="120" width="160" height="168" as="geometry"/></mxCell><mxCell id="20" value="+ showItems():&#10;+ select()&#10;+ removes()&#10;+ updates()&#10;+ mainMenu()&#10;+ run()" style="text;strokeColor=none;fillColor=none;align=left;verticalAlign=top;spacingLeft=4;spacingRight=4;overflow=hidden;rotatable=0;points=[[0,0.5],[1,0.5]];portConstraint=eastwest;" vertex="1" parent="19"><mxGeometry y="26" width="160" height="134" as="geometry"/></mxCell><mxCell id="21" value="" style="line;strokeWidth=1;fillColor=none;align=left;verticalAlign=middle;spacingTop=-1;spacingLeft=3;spacingRight=3;rotatable=0;labelPosition=right;points=[];portConstraint=eastwest;strokeColor=inherit;" vertex="1" parent="19"><mxGeometry y="160" width="160" height="8" as="geometry"/></mxCell><mxCell id="22" value="ErrorHandling" style="swimlane;fontStyle=0;childLayout=stackLayout;horizontal=1;startSize=26;fillColor=none;horizontalStack=0;resizeParent=1;resizeParentMax=0;resizeLast=0;collapsible=1;marginBottom=0;" vertex="1" parent="1"><mxGeometry x="720" y="535" width="140" height="250" as="geometry"/></mxCell><mxCell id="23" value="+ choiceError() &#10;+ QtyError()&#10;+ InputError()&#10;+ InputChoice()&#10;+userNameValue()" style="text;strokeColor=none;fillColor=none;align=left;verticalAlign=top;spacingLeft=4;spacingRight=4;overflow=hidden;rotatable=0;points=[[0,0.5],[1,0.5]];portConstraint=eastwest;" vertex="1" parent="22"><mxGeometry y="26" width="140" height="224" as="geometry"/></mxCell><mxCell id="24" value="" style="endArrow=none;html=1;edgeStyle=orthogonalEdgeStyle;rounded=0;exitX=0.571;exitY=0.02;exitDx=0;exitDy=0;exitPerimeter=0;" edge="1" parent="1" source="22"><mxGeometry relative="1" as="geometry"><mxPoint x="810" y="530" as="sourcePoint"/><mxPoint x="800" y="290" as="targetPoint"/></mxGeometry></mxCell><mxCell id="25" value="" style="endArrow=none;html=1;edgeStyle=orthogonalEdgeStyle;rounded=0;entryX=-0.006;entryY=0.455;entryDx=0;entryDy=0;entryPerimeter=0;" edge="1" parent="1" target="20"><mxGeometry relative="1" as="geometry"><mxPoint x="580" y="209" as="sourcePoint"/><mxPoint x="660" y="210" as="targetPoint"/></mxGeometry></mxCell><mxCell id="26" value="" style="endArrow=none;html=1;edgeStyle=orthogonalEdgeStyle;rounded=0;entryX=0;entryY=0.778;entryDx=0;entryDy=0;entryPerimeter=0;exitX=0.25;exitY=0;exitDx=0;exitDy=0;" edge="1" parent="1" source="15" target="20"><mxGeometry relative="1" as="geometry"><mxPoint x="550" y="480" as="sourcePoint"/><mxPoint x="710" y="280" as="targetPoint"/><Array as="points"><mxPoint x="610" y="535"/><mxPoint x="610" y="260"/></Array></mxGeometry></mxCell><mxCell id="27" value="" style="endArrow=none;html=1;edgeStyle=orthogonalEdgeStyle;rounded=0;" edge="1" parent="1"><mxGeometry relative="1" as="geometry"><mxPoint x="900" y="180.03999999999996" as="sourcePoint"/><mxPoint x="950" y="870" as="targetPoint"/></mxGeometry></mxCell><mxCell id="28" value="" style="endArrow=none;html=1;edgeStyle=orthogonalEdgeStyle;rounded=0;" edge="1" parent="1"><mxGeometry relative="1" as="geometry"><mxPoint x="400" y="870" as="sourcePoint"/><mxPoint x="950" y="870" as="targetPoint"/></mxGeometry></mxCell><mxCell id="29" value="" style="endArrow=none;html=1;edgeStyle=orthogonalEdgeStyle;rounded=0;" edge="1" parent="1"><mxGeometry relative="1" as="geometry"><mxPoint x="400" y="870" as="sourcePoint"/><mxPoint x="400" y="753" as="targetPoint"/></mxGeometry></mxCell><mxCell id="30" value="" style="endArrow=none;html=1;edgeStyle=orthogonalEdgeStyle;rounded=0;" edge="1" parent="1"><mxGeometry relative="1" as="geometry"><mxPoint x="140" y="749" as="sourcePoint"/><mxPoint x="160" y="930" as="targetPoint"/></mxGeometry></mxCell><mxCell id="31" value="" style="endArrow=none;html=1;edgeStyle=orthogonalEdgeStyle;rounded=0;" edge="1" parent="1"><mxGeometry relative="1" as="geometry"><mxPoint x="159" y="930" as="sourcePoint"/><mxPoint x="1040" y="160" as="targetPoint"/></mxGeometry></mxCell><mxCell id="32" value="" style="endArrow=none;html=1;edgeStyle=orthogonalEdgeStyle;rounded=0;" edge="1" parent="1"><mxGeometry relative="1" as="geometry"><mxPoint x="900" y="160" as="sourcePoint"/><mxPoint x="1040" y="160" as="targetPoint"/></mxGeometry></mxCell><mxCell id="33" value="" style="endArrow=open;html=1;endSize=12;startArrow=diamondThin;startSize=14;startFill=0;edgeStyle=orthogonalEdgeStyle;align=left;verticalAlign=bottom;rounded=0;exitX=0;exitY=0.912;exitDx=0;exitDy=0;exitPerimeter=0;" edge="1" parent="1" source="7"><mxGeometry x="-1" y="3" relative="1" as="geometry"><mxPoint x="100" y="203.58" as="sourcePoint"/><mxPoint x="180" y="540" as="targetPoint"/></mxGeometry></mxCell></root></mxGraphModel></diagram></mxfile>